solid OpenSCAD_Model
  facet normal 0.5113071827078173 -0.391146061822066 0.7652252761327761
    outer loop
      vertex 5.868532651640551 0 3.2683961822082956
      vertex 6.200191626356963 2 4.069091777051411
      vertex 4.909320950291774 0 3.9093209502917743
    endloop
  endfacet
  facet normal 0.17954720572674737 -0.3911460618220657 0.902644758050921
    outer loop
      vertex 6.547539445708673 2 4
      vertex 5.868532651640551 0 3.2683961822082956
      vertex 7 0 3.0433333333333334
    endloop
  endfacet
  facet normal -0.17954720572674734 -0.39114606182206585 0.9026447580509208
    outer loop
      vertex 7 0 3.0433333333333334
      vertex 8.131467348359449 0 3.2683961822082956
      vertex 7.799808373643037 2 4.069091777051411
    endloop
  endfacet
  facet normal 0.7652252761327761 -0.3911460618220659 0.5113071827078173
    outer loop
      vertex 4.909320950291774 0 3.9093209502917743
      vertex 5.522146827320116 2 4.522146827320116
      vertex 4.268396182208296 0 4.868532651640551
    endloop
  endfacet
  facet normal 0.9026447580509208 -0.3911460618220659 0.1795472057267477
    outer loop
      vertex 4.043333333333333 0 6
      vertex 4.268396182208296 0 4.868532651640551
      vertex 5.069091777051411 2 5.200191626356963
    endloop
  endfacet
  facet normal -0.17954720572674876 -0.3911460618220653 0.9026447580509209
    outer loop
      vertex 7.452460554291327 2 4
      vertex 7 0 3.0433333333333334
      vertex 7.799808373643037 2 4.069091777051411
    endloop
  endfacet
  facet normal 0.17954720572674754 -0.3911460618220656 0.9026447580509209
    outer loop
      vertex 6.547539445708673 2 4
      vertex 7 0 3.0433333333333334
      vertex 7 2.2076923076923083 4
    endloop
  endfacet
  facet normal -0.17954720572674754 -0.3911460618220656 0.9026447580509209
    outer loop
      vertex 7.452460554291327 2 4
      vertex 7 2.2076923076923083 4
      vertex 7 0 3.0433333333333334
    endloop
  endfacet
  facet normal 0.511307182707817 -0.3911460618220659 0.7652252761327761
    outer loop
      vertex 4.909320950291774 0 3.9093209502917743
      vertex 6.200191626356963 2 4.069091777051411
      vertex 5.522146827320116 2 4.522146827320116
    endloop
  endfacet
  facet normal 0.1795472057267487 -0.3911460618220659 0.9026447580509206
    outer loop
      vertex 5.868532651640551 0 3.2683961822082956
      vertex 6.547539445708673 2 4
      vertex 6.200191626356963 2 4.069091777051411
    endloop
  endfacet
  facet normal 0.7652252761327761 -0.39114606182206596 0.511307182707817
    outer loop
      vertex 4.268396182208296 0 4.868532651640551
      vertex 5.522146827320116 2 4.522146827320116
      vertex 5.069091777051411 2 5.200191626356963
    endloop
  endfacet
  facet normal 0.902644758050921 -0.39114606182206596 0.17954720572674765
    outer loop
      vertex 4.043333333333333 0 6
      vertex 5.069091777051411 2 5.200191626356963
      vertex 4.91 2 6
    endloop
  endfacet
  facet normal -0.5113071827078176 -0.3911460618220658 0.7652252761327759
    outer loop
      vertex 8.131467348359449 0 3.2683961822082956
      vertex 9.090679049708225 0 3.9093209502917743
      vertex 8.477853172679884 2 4.522146827320116
    endloop
  endfacet
  facet normal -0.7652252761327758 -0.3911460618220656 0.5113071827078178
    outer loop
      vertex 9.731603817791704 0 4.868532651640551
      vertex 8.93090822294859 2 5.200191626356963
      vertex 9.090679049708225 0 3.9093209502917743
    endloop
  endfacet
  facet normal -0.9026447580509208 -0.3911460618220659 0.1795472057267477
    outer loop
      vertex 9.731603817791704 0 4.868532651640551
      vertex 9.956666666666667 0 6
      vertex 9.09 2 6
    endloop
  endfacet
  facet normal -0.511307182707817 -0.391146061822066 0.7652252761327761
    outer loop
      vertex 8.131467348359449 0 3.2683961822082956
      vertex 8.477853172679884 2 4.522146827320116
      vertex 7.799808373643037 2 4.069091777051411
    endloop
  endfacet
  facet normal -0.7652252761327758 -0.3911460618220656 0.5113071827078178
    outer loop
      vertex 9.090679049708225 0 3.9093209502917743
      vertex 8.93090822294859 2 5.200191626356963
      vertex 8.477853172679884 2 4.522146827320116
    endloop
  endfacet
  facet normal -0.9026447580509214 -0.3911460618220655 0.1795472057267467
    outer loop
      vertex 9.731603817791704 0 4.868532651640551
      vertex 9.09 2 6
      vertex 8.93090822294859 2 5.200191626356963
    endloop
  endfacet
  facet normal 0.9026447580509208 -0.3911460618220659 -0.1795472057267477
    outer loop
      vertex 4.043333333333333 0 6
      vertex 4.91 2 6
      vertex 4.268396182208296 0 7.131467348359449
    endloop
  endfacet
  facet normal 0.7652252761327758 -0.3911460618220659 -0.5113071827078176
    outer loop
      vertex 4.268396182208296 0 7.131467348359449
      vertex 5.069091777051411 2 6.799808373643037
      vertex 4.909320950291774 0 8.090679049708225
    endloop
  endfacet
  facet normal 0.5113071827078178 -0.3911460618220657 -0.7652252761327758
    outer loop
      vertex 4.909320950291774 0 8.090679049708225
      vertex 5.522146827320116 2 7.477853172679884
      vertex 5.868532651640551 0 8.731603817791704
    endloop
  endfacet
  facet normal 0.1795472057267477 -0.39114606182206585 -0.9026447580509208
    outer loop
      vertex 7 0 8.956666666666667
      vertex 5.868532651640551 0 8.731603817791704
      vertex 6.200191626356963 2 7.930908222948589
    endloop
  endfacet
  facet normal -0.1795472057267477 -0.3911460618220659 -0.9026447580509208
    outer loop
      vertex 7 0 8.956666666666667
      vertex 7 2 8.09
      vertex 8.131467348359449 0 8.731603817791704
    endloop
  endfacet
  facet normal 0.902644758050921 -0.39114606182206596 -0.17954720572674765
    outer loop
      vertex 4.268396182208296 0 7.131467348359449
      vertex 4.91 2 6
      vertex 5.069091777051411 2 6.799808373643037
    endloop
  endfacet
  facet normal 0.7652252761327762 -0.3911460618220657 -0.5113071827078172
    outer loop
      vertex 4.909320950291774 0 8.090679049708225
      vertex 5.069091777051411 2 6.799808373643037
      vertex 5.522146827320116 2 7.477853172679884
    endloop
  endfacet
  facet normal 0.511307182707817 -0.391146061822066 -0.7652252761327761
    outer loop
      vertex 5.868532651640551 0 8.731603817791704
      vertex 5.522146827320116 2 7.477853172679884
      vertex 6.200191626356963 2 7.930908222948589
    endloop
  endfacet
  facet normal 0.17954720572674762 -0.3911460618220659 -0.9026447580509209
    outer loop
      vertex 7 0 8.956666666666667
      vertex 6.200191626356963 2 7.930908222948589
      vertex 7 2 8.09
    endloop
  endfacet
  facet normal -0.17954720572674765 -0.3911460618220659 -0.902644758050921
    outer loop
      vertex 8.131467348359449 0 8.731603817791704
      vertex 7 2 8.09
      vertex 7.799808373643037 2 7.930908222948589
    endloop
  endfacet
  facet normal -0.902644758050921 -0.39114606182206557 -0.17954720572674773
    outer loop
      vertex 9.956666666666667 0 6
      vertex 9.731603817791704 0 7.131467348359449
      vertex 8.93090822294859 2 6.799808373643037
    endloop
  endfacet
  facet normal -0.7652252761327757 -0.39114606182206546 -0.5113071827078182
    outer loop
      vertex 9.731603817791704 0 7.131467348359449
      vertex 9.090679049708225 0 8.090679049708225
      vertex 8.477853172679884 2 7.477853172679884
    endloop
  endfacet
  facet normal -0.511307182707818 -0.3911460618220659 -0.7652252761327756
    outer loop
      vertex 8.131467348359449 0 8.731603817791704
      vertex 7.799808373643037 2 7.930908222948589
      vertex 9.090679049708225 0 8.090679049708225
    endloop
  endfacet
  facet normal -0.9026447580509211 -0.391146061822066 -0.17954720572674668
    outer loop
      vertex 9.956666666666667 0 6
      vertex 8.93090822294859 2 6.799808373643037
      vertex 9.09 2 6
    endloop
  endfacet
  facet normal -0.7652252761327758 -0.3911460618220656 -0.5113071827078178
    outer loop
      vertex 9.731603817791704 0 7.131467348359449
      vertex 8.477853172679884 2 7.477853172679884
      vertex 8.93090822294859 2 6.799808373643037
    endloop
  endfacet
  facet normal -0.5113071827078172 -0.3911460618220654 -0.7652252761327764
    outer loop
      vertex 9.090679049708225 0 8.090679049708225
      vertex 7.799808373643037 2 7.930908222948589
      vertex 8.477853172679884 2 7.477853172679884
    endloop
  endfacet
  facet normal 0.5113071827078146 -0.3911460618220647 0.7652252761327785
    outer loop
      vertex 53.50853265164056 0 3.2683961822082956
      vertex 53.84019162635696 2 4.069091777051411
      vertex 52.54932095029177 0 3.9093209502917743
    endloop
  endfacet
  facet normal 0.7652252761327785 -0.39114606182206596 0.5113071827078138
    outer loop
      vertex 52.54932095029177 0 3.9093209502917743
      vertex 53.162146827320115 2 4.522146827320116
      vertex 51.9083961822083 0 4.868532651640551
    endloop
  endfacet
  facet normal 0.9026447580509211 -0.39114606182206485 0.17954720572674776
    outer loop
      vertex 51.68333333333334 0 6
      vertex 51.9083961822083 0 4.868532651640551
      vertex 52.70909177705141 2 5.200191626356963
    endloop
  endfacet
  facet normal 0.17954720572674832 -0.39114606182206535 0.9026447580509209
    outer loop
      vertex 53.50853265164056 0 3.2683961822082956
      vertex 54.18753944570867 2 4
      vertex 53.84019162635696 2 4.069091777051411
    endloop
  endfacet
  facet normal 0.511307182707817 -0.39114606182206607 0.765225276132776
    outer loop
      vertex 52.54932095029177 0 3.9093209502917743
      vertex 53.84019162635696 2 4.069091777051411
      vertex 53.162146827320115 2 4.522146827320116
    endloop
  endfacet
  facet normal 0.7652252761327778 -0.39114606182206535 0.5113071827078152
    outer loop
      vertex 51.9083961822083 0 4.868532651640551
      vertex 53.162146827320115 2 4.522146827320116
      vertex 52.70909177705141 2 5.200191626356963
    endloop
  endfacet
  facet normal 0.9026447580509214 -0.3911460618220629 0.17954720572675273
    outer loop
      vertex 51.68333333333334 0 6
      vertex 52.70909177705141 2 5.200191626356963
      vertex 52.55 2 6
    endloop
  endfacet
  facet normal 0.17954720572674823 -0.3911460618220654 0.9026447580509211
    outer loop
      vertex 54.18753944570867 2 4
      vertex 53.50853265164056 0 3.2683961822082956
      vertex 54.64 0 3.0433333333333334
    endloop
  endfacet
  facet normal -0.17954720572674823 -0.3911460618220654 0.9026447580509211
    outer loop
      vertex 54.64 0 3.0433333333333334
      vertex 55.771467348359444 0 3.2683961822082956
      vertex 55.43980837364304 2 4.069091777051411
    endloop
  endfacet
  facet normal -0.5113071827078143 -0.39114606182206585 0.765225276132778
    outer loop
      vertex 55.771467348359444 0 3.2683961822082956
      vertex 56.73067904970823 0 3.9093209502917743
      vertex 56.11785317267989 2 4.522146827320116
    endloop
  endfacet
  facet normal -0.7652252761327786 -0.39114606182206546 0.511307182707814
    outer loop
      vertex 57.3716038177917 0 4.868532651640551
      vertex 56.57090822294859 2 5.200191626356963
      vertex 56.73067904970823 0 3.9093209502917743
    endloop
  endfacet
  facet normal -0.902644758050922 -0.3911460618220632 0.17954720572674793
    outer loop
      vertex 57.3716038177917 0 4.868532651640551
      vertex 57.596666666666664 0 6
      vertex 56.730000000000004 2 6
    endloop
  endfacet
  facet normal 0.1795472057267472 -0.3911460618220657 0.9026447580509211
    outer loop
      vertex 54.18753944570867 2 4
      vertex 54.64 0 3.0433333333333334
      vertex 54.64 2.2076923076923083 4
    endloop
  endfacet
  facet normal -0.1795472057267472 -0.3911460618220657 0.9026447580509211
    outer loop
      vertex 55.09246055429133 2 4
      vertex 54.64 2.2076923076923083 4
      vertex 54.64 0 3.0433333333333334
    endloop
  endfacet
  facet normal -0.17954720572674832 -0.39114606182206535 0.9026447580509209
    outer loop
      vertex 55.09246055429133 2 4
      vertex 54.64 0 3.0433333333333334
      vertex 55.43980837364304 2 4.069091777051411
    endloop
  endfacet
  facet normal -0.5113071827078175 -0.3911460618220644 0.7652252761327767
    outer loop
      vertex 55.771467348359444 0 3.2683961822082956
      vertex 56.11785317267989 2 4.522146827320116
      vertex 55.43980837364304 2 4.069091777051411
    endloop
  endfacet
  facet normal -0.7652252761327775 -0.391146061822066 0.511307182707815
    outer loop
      vertex 56.73067904970823 0 3.9093209502917743
      vertex 56.57090822294859 2 5.200191626356963
      vertex 56.11785317267989 2 4.522146827320116
    endloop
  endfacet
  facet normal -0.9026447580509203 -0.3911460618220653 0.17954720572675253
    outer loop
      vertex 57.3716038177917 0 4.868532651640551
      vertex 56.730000000000004 2 6
      vertex 56.57090822294859 2 5.200191626356963
    endloop
  endfacet
  facet normal 0.902644758050922 -0.3911460618220632 -0.17954720572674793
    outer loop
      vertex 51.68333333333334 0 6
      vertex 52.55 2 6
      vertex 51.9083961822083 0 7.131467348359449
    endloop
  endfacet
  facet normal 0.7652252761327784 -0.3911460618220654 -0.5113071827078143
    outer loop
      vertex 51.9083961822083 0 7.131467348359449
      vertex 52.70909177705141 2 6.799808373643037
      vertex 52.54932095029177 0 8.090679049708225
    endloop
  endfacet
  facet normal 0.5113071827078148 -0.39114606182206557 -0.7652252761327778
    outer loop
      vertex 52.54932095029177 0 8.090679049708225
      vertex 53.162146827320115 2 7.477853172679884
      vertex 53.50853265164056 0 8.731603817791704
    endloop
  endfacet
  facet normal 0.9026447580509203 -0.3911460618220653 -0.17954720572675253
    outer loop
      vertex 51.9083961822083 0 7.131467348359449
      vertex 52.55 2 6
      vertex 52.70909177705141 2 6.799808373643037
    endloop
  endfacet
  facet normal 0.7652252761327776 -0.3911460618220658 -0.5113071827078151
    outer loop
      vertex 52.54932095029177 0 8.090679049708225
      vertex 52.70909177705141 2 6.799808373643037
      vertex 53.162146827320115 2 7.477853172679884
    endloop
  endfacet
  facet normal 0.5113071827078175 -0.3911460618220644 -0.7652252761327767
    outer loop
      vertex 53.50853265164056 0 8.731603817791704
      vertex 53.162146827320115 2 7.477853172679884
      vertex 53.84019162635696 2 7.930908222948589
    endloop
  endfacet
  facet normal -0.9026447580509211 -0.39114606182206485 -0.17954720572674776
    outer loop
      vertex 57.596666666666664 0 6
      vertex 57.3716038177917 0 7.131467348359449
      vertex 56.57090822294859 2 6.799808373643037
    endloop
  endfacet
  facet normal -0.7652252761327782 -0.3911460618220658 -0.5113071827078143
    outer loop
      vertex 57.3716038177917 0 7.131467348359449
      vertex 56.73067904970823 0 8.090679049708225
      vertex 56.11785317267989 2 7.477853172679884
    endloop
  endfacet
  facet normal 0.17954720572674854 -0.39114606182206546 -0.9026447580509209
    outer loop
      vertex 54.64 0 8.956666666666667
      vertex 53.50853265164056 0 8.731603817791704
      vertex 53.84019162635696 2 7.930908222948589
    endloop
  endfacet
  facet normal -0.1795472057267485 -0.3911460618220659 -0.9026447580509208
    outer loop
      vertex 54.64 0 8.956666666666667
      vertex 54.64 2 8.09
      vertex 55.771467348359444 0 8.731603817791704
    endloop
  endfacet
  facet normal -0.5113071827078151 -0.39114606182206463 -0.7652252761327781
    outer loop
      vertex 55.771467348359444 0 8.731603817791704
      vertex 55.43980837364304 2 7.930908222948589
      vertex 56.73067904970823 0 8.090679049708225
    endloop
  endfacet
  facet normal -0.9026447580509214 -0.3911460618220629 -0.17954720572675273
    outer loop
      vertex 57.596666666666664 0 6
      vertex 56.57090822294859 2 6.799808373643037
      vertex 56.730000000000004 2 6
    endloop
  endfacet
  facet normal -0.7652252761327778 -0.39114606182206535 -0.5113071827078152
    outer loop
      vertex 57.3716038177917 0 7.131467348359449
      vertex 56.11785317267989 2 7.477853172679884
      vertex 56.57090822294859 2 6.799808373643037
    endloop
  endfacet
  facet normal -0.511307182707817 -0.39114606182206574 -0.7652252761327761
    outer loop
      vertex 56.73067904970823 0 8.090679049708225
      vertex 55.43980837364304 2 7.930908222948589
      vertex 56.11785317267989 2 7.477853172679884
    endloop
  endfacet
  facet normal 0.17954720572674726 -0.39114606182206596 -0.9026447580509209
    outer loop
      vertex 54.64 0 8.956666666666667
      vertex 53.84019162635696 2 7.930908222948589
      vertex 54.64 2 8.09
    endloop
  endfacet
  facet normal -0.17954720572674732 -0.3911460618220654 -0.9026447580509213
    outer loop
      vertex 55.771467348359444 0 8.731603817791704
      vertex 54.64 2 8.09
      vertex 55.43980837364304 2 7.930908222948589
    endloop
  endfacet
  facet normal 0 -1 0
    outer loop
      vertex 0 0 0
      vertex 5.868532651640551 0 3.2683961822082956
      vertex 4.909320950291774 0 3.9093209502917743
    endloop
  endfacet
  facet normal 0 -1 0
    outer loop
      vertex 0 0 0
      vertex 4.909320950291774 0 3.9093209502917743
      vertex 4.268396182208296 0 4.868532651640551
    endloop
  endfacet
  facet normal 0 -1 0
    outer loop
      vertex 0 0 0
      vertex 7 0 3.0433333333333334
      vertex 5.868532651640551 0 3.2683961822082956
    endloop
  endfacet
  facet normal -1 0 0
    outer loop
      vertex 0 0 0
      vertex 0 2 4
      vertex 0 2 0
    endloop
  endfacet
  facet normal 0 -1 0
    outer loop
      vertex 0 0 0
      vertex 4.268396182208296 0 4.868532651640551
      vertex 4.043333333333333 0 6
    endloop
  endfacet
  facet normal -1 0 0
    outer loop
      vertex 0 0 0
      vertex 0 2 12
      vertex 0 2 4
    endloop
  endfacet
  facet normal 0 1 0
    outer loop
      vertex 0 2 4
      vertex 6.200191626356963 2 4.069091777051411
      vertex 6.547539445708673 2 4
    endloop
  endfacet
  facet normal 0 1 0
    outer loop
      vertex 0 2 4
      vertex 5.522146827320116 2 4.522146827320116
      vertex 6.200191626356963 2 4.069091777051411
    endloop
  endfacet
  facet normal 0 1 0
    outer loop
      vertex 0 2 4
      vertex 5.069091777051411 2 5.200191626356963
      vertex 5.522146827320116 2 4.522146827320116
    endloop
  endfacet
  facet normal 0 1 0
    outer loop
      vertex 0 2 4
      vertex 4.91 2 6
      vertex 5.069091777051411 2 5.200191626356963
    endloop
  endfacet
  facet normal 0 0 -1
    outer loop
      vertex 0 0 0
      vertex 0 2 0
      vertex 61.64 2 0
    endloop
  endfacet
  facet normal 0 -1 0
    outer loop
      vertex 0 0 0
      vertex 61.64 0 12
      vertex 7 0 3.0433333333333334
    endloop
  endfacet
  facet normal 0 1 0
    outer loop
      vertex 7.452460554291327 2 4
      vertex 7.799808373643037 2 4.069091777051411
      vertex 53.84019162635696 2 4.069091777051411
    endloop
  endfacet
  facet normal 0 1 0
    outer loop
      vertex 8.477853172679884 2 4.522146827320116
      vertex 53.84019162635696 2 4.069091777051411
      vertex 7.799808373643037 2 4.069091777051411
    endloop
  endfacet
  facet normal 0 1 0
    outer loop
      vertex 8.477853172679884 2 4.522146827320116
      vertex 8.93090822294859 2 5.200191626356963
      vertex 53.162146827320115 2 4.522146827320116
    endloop
  endfacet
  facet normal 0 -1 0
    outer loop
      vertex 0 0 0
      vertex 4.043333333333333 0 6
      vertex 0 0 12
    endloop
  endfacet
  facet normal 0 -1 0
    outer loop
      vertex 0 0 12
      vertex 4.043333333333333 0 6
      vertex 4.268396182208296 0 7.131467348359449
    endloop
  endfacet
  facet normal -1 0 0
    outer loop
      vertex 0 0 0
      vertex 0 0 12
      vertex 0 2 12
    endloop
  endfacet
  facet normal 0 -1 0
    outer loop
      vertex 0 0 12
      vertex 4.268396182208296 0 7.131467348359449
      vertex 4.909320950291774 0 8.090679049708225
    endloop
  endfacet
  facet normal 0 -1 0
    outer loop
      vertex 0 0 12
      vertex 4.909320950291774 0 8.090679049708225
      vertex 5.868532651640551 0 8.731603817791704
    endloop
  endfacet
  facet normal 0 -1 0
    outer loop
      vertex 0 0 12
      vertex 5.868532651640551 0 8.731603817791704
      vertex 7 0 8.956666666666667
    endloop
  endfacet
  facet normal 0 -1 0
    outer loop
      vertex 0 0 12
      vertex 7 0 8.956666666666667
      vertex 8.131467348359449 0 8.731603817791704
    endloop
  endfacet
  facet normal 0 1 0
    outer loop
      vertex 0 2 4
      vertex 0 2 12
      vertex 4.91 2 6
    endloop
  endfacet
  facet normal 0 1 0
    outer loop
      vertex 0 2 12
      vertex 5.069091777051411 2 6.799808373643037
      vertex 4.91 2 6
    endloop
  endfacet
  facet normal 0 1 0
    outer loop
      vertex 0 2 12
      vertex 5.522146827320116 2 7.477853172679884
      vertex 5.069091777051411 2 6.799808373643037
    endloop
  endfacet
  facet normal 0 1 0
    outer loop
      vertex 0 2 12
      vertex 6.200191626356963 2 7.930908222948589
      vertex 5.522146827320116 2 7.477853172679884
    endloop
  endfacet
  facet normal 0 1 0
    outer loop
      vertex 0 2 12
      vertex 7 2 8.09
      vertex 6.200191626356963 2 7.930908222948589
    endloop
  endfacet
  facet normal 0 -1 0
    outer loop
      vertex 61.64 0 12
      vertex 8.131467348359449 0 3.2683961822082956
      vertex 7 0 3.0433333333333334
    endloop
  endfacet
  facet normal 0 -1 0
    outer loop
      vertex 61.64 0 12
      vertex 9.090679049708225 0 3.9093209502917743
      vertex 8.131467348359449 0 3.2683961822082956
    endloop
  endfacet
  facet normal 0 -1 0
    outer loop
      vertex 61.64 0 12
      vertex 9.731603817791704 0 4.868532651640551
      vertex 9.090679049708225 0 3.9093209502917743
    endloop
  endfacet
  facet normal 0 -1 0
    outer loop
      vertex 61.64 0 12
      vertex 9.956666666666667 0 6
      vertex 9.731603817791704 0 4.868532651640551
    endloop
  endfacet
  facet normal 0 -1 0
    outer loop
      vertex 61.64 0 12
      vertex 9.731603817791704 0 7.131467348359449
      vertex 9.956666666666667 0 6
    endloop
  endfacet
  facet normal 0 0 1
    outer loop
      vertex 0 0 12
      vertex 61.64 0 12
      vertex 0 2 12
    endloop
  endfacet
  facet normal 0 -1 0
    outer loop
      vertex 61.64 0 12
      vertex 9.090679049708225 0 8.090679049708225
      vertex 9.731603817791704 0 7.131467348359449
    endloop
  endfacet
  facet normal 0 -1 0
    outer loop
      vertex 61.64 0 12
      vertex 8.131467348359449 0 8.731603817791704
      vertex 9.090679049708225 0 8.090679049708225
    endloop
  endfacet
  facet normal 0 -1 0
    outer loop
      vertex 0 0 12
      vertex 8.131467348359449 0 8.731603817791704
      vertex 61.64 0 12
    endloop
  endfacet
  facet normal 0 1 0
    outer loop
      vertex 61.64 2 12
      vertex 8.93090822294859 2 5.200191626356963
      vertex 9.09 2 6
    endloop
  endfacet
  facet normal 0 1 0
    outer loop
      vertex 61.64 2 12
      vertex 9.09 2 6
      vertex 8.93090822294859 2 6.799808373643037
    endloop
  endfacet
  facet normal 0 1 0
    outer loop
      vertex 61.64 2 12
      vertex 8.93090822294859 2 6.799808373643037
      vertex 8.477853172679884 2 7.477853172679884
    endloop
  endfacet
  facet normal 0 1 0
    outer loop
      vertex 0 2 12
      vertex 61.64 2 12
      vertex 7 2 8.09
    endloop
  endfacet
  facet normal 0 1 0
    outer loop
      vertex 61.64 2 12
      vertex 8.477853172679884 2 7.477853172679884
      vertex 7.799808373643037 2 7.930908222948589
    endloop
  endfacet
  facet normal 0 1 0
    outer loop
      vertex 61.64 2 12
      vertex 7.799808373643037 2 7.930908222948589
      vertex 7 2 8.09
    endloop
  endfacet
  facet normal 0 -1 0
    outer loop
      vertex 0 0 0
      vertex 54.64 0 3.0433333333333334
      vertex 53.50853265164056 0 3.2683961822082956
    endloop
  endfacet
  facet normal 0 -1 0
    outer loop
      vertex 0 0 0
      vertex 53.50853265164056 0 3.2683961822082956
      vertex 52.54932095029177 0 3.9093209502917743
    endloop
  endfacet
  facet normal 0 -1 0
    outer loop
      vertex 0 0 0
      vertex 52.54932095029177 0 3.9093209502917743
      vertex 51.9083961822083 0 4.868532651640551
    endloop
  endfacet
  facet normal 0 -1 0
    outer loop
      vertex 0 0 0
      vertex 61.64 0 0
      vertex 54.64 0 3.0433333333333334
    endloop
  endfacet
  facet normal 0 0 -1
    outer loop
      vertex 0 0 0
      vertex 61.64 2 0
      vertex 61.64 0 0
    endloop
  endfacet
  facet normal 0 -1 0
    outer loop
      vertex 0 0 0
      vertex 51.9083961822083 0 4.868532651640551
      vertex 51.68333333333334 0 6
    endloop
  endfacet
  facet normal 0 -1 0
    outer loop
      vertex 0 0 0
      vertex 51.68333333333334 0 6
      vertex 51.9083961822083 0 7.131467348359449
    endloop
  endfacet
  facet normal 0 -1 0
    outer loop
      vertex 0 0 0
      vertex 51.9083961822083 0 7.131467348359449
      vertex 52.54932095029177 0 8.090679049708225
    endloop
  endfacet
  facet normal 0 -1 0
    outer loop
      vertex 0 0 0
      vertex 52.54932095029177 0 8.090679049708225
      vertex 53.50853265164056 0 8.731603817791704
    endloop
  endfacet
  facet normal 0 -1 0
    outer loop
      vertex 0 0 0
      vertex 53.50853265164056 0 8.731603817791704
      vertex 54.64 0 8.956666666666667
    endloop
  endfacet
  facet normal 0 1 0
    outer loop
      vertex 7.452460554291327 2 4
      vertex 53.84019162635696 2 4.069091777051411
      vertex 54.18753944570867 2 4
    endloop
  endfacet
  facet normal 0 1 0
    outer loop
      vertex 8.477853172679884 2 4.522146827320116
      vertex 53.162146827320115 2 4.522146827320116
      vertex 53.84019162635696 2 4.069091777051411
    endloop
  endfacet
  facet normal 0 1 0
    outer loop
      vertex 8.93090822294859 2 5.200191626356963
      vertex 52.70909177705141 2 5.200191626356963
      vertex 53.162146827320115 2 4.522146827320116
    endloop
  endfacet
  facet normal 0 1 0
    outer loop
      vertex 8.93090822294859 2 5.200191626356963
      vertex 52.55 2 6
      vertex 52.70909177705141 2 5.200191626356963
    endloop
  endfacet
  facet normal 0 -1 0
    outer loop
      vertex 61.64 0 0
      vertex 55.771467348359444 0 3.2683961822082956
      vertex 54.64 0 3.0433333333333334
    endloop
  endfacet
  facet normal 0 -1 0
    outer loop
      vertex 61.64 0 0
      vertex 56.73067904970823 0 3.9093209502917743
      vertex 55.771467348359444 0 3.2683961822082956
    endloop
  endfacet
  facet normal 0 -1 0
    outer loop
      vertex 61.64 0 0
      vertex 57.3716038177917 0 4.868532651640551
      vertex 56.73067904970823 0 3.9093209502917743
    endloop
  endfacet
  facet normal 1 0 0
    outer loop
      vertex 61.64 0 0
      vertex 61.64 2 0
      vertex 61.64 0 12
    endloop
  endfacet
  facet normal 0 -1 0
    outer loop
      vertex 61.64 0 0
      vertex 61.64 0 12
      vertex 57.3716038177917 0 4.868532651640551
    endloop
  endfacet
  facet normal 1 0 0
    outer loop
      vertex 61.64 2 0
      vertex 61.64 2 4
      vertex 61.64 0 12
    endloop
  endfacet
  facet normal 0 1 0
    outer loop
      vertex 61.64 2 4
      vertex 55.09246055429133 2 4
      vertex 55.43980837364304 2 4.069091777051411
    endloop
  endfacet
  facet normal 0 1 0
    outer loop
      vertex 61.64 2 4
      vertex 55.43980837364304 2 4.069091777051411
      vertex 56.11785317267989 2 4.522146827320116
    endloop
  endfacet
  facet normal 0 1 0
    outer loop
      vertex 61.64 2 4
      vertex 56.11785317267989 2 4.522146827320116
      vertex 56.57090822294859 2 5.200191626356963
    endloop
  endfacet
  facet normal 0 1 0
    outer loop
      vertex 61.64 2 4
      vertex 56.57090822294859 2 5.200191626356963
      vertex 56.730000000000004 2 6
    endloop
  endfacet
  facet normal 0 -1 0
    outer loop
      vertex 0 0 0
      vertex 54.64 0 8.956666666666667
      vertex 61.64 0 12
    endloop
  endfacet
  facet normal 0 0 1
    outer loop
      vertex 0 2 12
      vertex 61.64 0 12
      vertex 61.64 2 12
    endloop
  endfacet
  facet normal 0 1 0
    outer loop
      vertex 8.93090822294859 2 5.200191626356963
      vertex 52.70909177705141 2 6.799808373643037
      vertex 52.55 2 6
    endloop
  endfacet
  facet normal 0 1 0
    outer loop
      vertex 8.93090822294859 2 5.200191626356963
      vertex 53.162146827320115 2 7.477853172679884
      vertex 52.70909177705141 2 6.799808373643037
    endloop
  endfacet
  facet normal 0 1 0
    outer loop
      vertex 8.93090822294859 2 5.200191626356963
      vertex 53.84019162635696 2 7.930908222948589
      vertex 53.162146827320115 2 7.477853172679884
    endloop
  endfacet
  facet normal 0 1 0
    outer loop
      vertex 8.93090822294859 2 5.200191626356963
      vertex 54.64 2 8.09
      vertex 53.84019162635696 2 7.930908222948589
    endloop
  endfacet
  facet normal 0 1 0
    outer loop
      vertex 61.64 2 12
      vertex 54.64 2 8.09
      vertex 8.93090822294859 2 5.200191626356963
    endloop
  endfacet
  facet normal 0 -1 0
    outer loop
      vertex 61.64 0 12
      vertex 57.596666666666664 0 6
      vertex 57.3716038177917 0 4.868532651640551
    endloop
  endfacet
  facet normal 0 -1 0
    outer loop
      vertex 61.64 0 12
      vertex 57.3716038177917 0 7.131467348359449
      vertex 57.596666666666664 0 6
    endloop
  endfacet
  facet normal 0 -1 0
    outer loop
      vertex 61.64 0 12
      vertex 54.64 0 8.956666666666667
      vertex 55.771467348359444 0 8.731603817791704
    endloop
  endfacet
  facet normal 0 -1 0
    outer loop
      vertex 61.64 0 12
      vertex 56.73067904970823 0 8.090679049708225
      vertex 57.3716038177917 0 7.131467348359449
    endloop
  endfacet
  facet normal 0 -1 0
    outer loop
      vertex 61.64 0 12
      vertex 55.771467348359444 0 8.731603817791704
      vertex 56.73067904970823 0 8.090679049708225
    endloop
  endfacet
  facet normal 1 0 0
    outer loop
      vertex 61.64 2 4
      vertex 61.64 2 12
      vertex 61.64 0 12
    endloop
  endfacet
  facet normal 0 1 0
    outer loop
      vertex 61.64 2 4
      vertex 56.730000000000004 2 6
      vertex 61.64 2 12
    endloop
  endfacet
  facet normal 0 1 0
    outer loop
      vertex 61.64 2 12
      vertex 56.730000000000004 2 6
      vertex 56.57090822294859 2 6.799808373643037
    endloop
  endfacet
  facet normal 0 1 0
    outer loop
      vertex 61.64 2 12
      vertex 56.57090822294859 2 6.799808373643037
      vertex 56.11785317267989 2 7.477853172679884
    endloop
  endfacet
  facet normal 0 1 0
    outer loop
      vertex 61.64 2 12
      vertex 56.11785317267989 2 7.477853172679884
      vertex 55.43980837364304 2 7.930908222948589
    endloop
  endfacet
  facet normal 0 1 0
    outer loop
      vertex 61.64 2 12
      vertex 55.43980837364304 2 7.930908222948589
      vertex 54.64 2 8.09
    endloop
  endfacet
  facet normal 0 0 1
    outer loop
      vertex 7.452460554291327 2 4
      vertex 25.4343593539449 5.8 4
      vertex 7 2.2076923076923083 4
    endloop
  endfacet
  facet normal 0 0 -1
    outer loop
      vertex 0 2 0
      vertex 25.4343593539449 4.2 0
      vertex 26.02 3.614359353944898 0
    endloop
  endfacet
  facet normal 0 0 -1
    outer loop
      vertex 0 2 0
      vertex 26.02 3.614359353944898 0
      vertex 26.82 3.4 0
    endloop
  endfacet
  facet normal 0 0 -1
    outer loop
      vertex 0 2 0
      vertex 25.22 5 0
      vertex 25.4343593539449 4.2 0
    endloop
  endfacet
  facet normal 0 0 -1
    outer loop
      vertex 0 2 0
      vertex 26.82 3.4 0
      vertex 44.82 3.4 0
    endloop
  endfacet
  facet normal 0 0 1
    outer loop
      vertex 7.452460554291327 2 4
      vertex 26.82 3.4 4
      vertex 26.02 3.614359353944898 4
    endloop
  endfacet
  facet normal 0 0 1
    outer loop
      vertex 7.452460554291327 2 4
      vertex 26.02 3.614359353944898 4
      vertex 25.4343593539449 4.2 4
    endloop
  endfacet
  facet normal 0 0 1
    outer loop
      vertex 7.452460554291327 2 4
      vertex 25.4343593539449 4.2 4
      vertex 25.22 5 4
    endloop
  endfacet
  facet normal 0 0 1
    outer loop
      vertex 7.452460554291327 2 4
      vertex 54.18753944570867 2 4
      vertex 26.82 3.4 4
    endloop
  endfacet
  facet normal -1 0 0
    outer loop
      vertex 0 2 0
      vertex 0 2 4
      vertex 0 8 4
    endloop
  endfacet
  facet normal 0 0 -1
    outer loop
      vertex 0 2 0
      vertex 0 8 0
      vertex 25.22 5 0
    endloop
  endfacet
  facet normal 0 0 1
    outer loop
      vertex 0 2 4
      vertex 6.547539445708673 2 4
      vertex 0 8 4
    endloop
  endfacet
  facet normal 0 0 1
    outer loop
      vertex 0 8 4
      vertex 6.547539445708673 2 4
      vertex 7 2.2076923076923083 4
    endloop
  endfacet
  facet normal 0 0 1
    outer loop
      vertex 0 8 4
      vertex 7 2.2076923076923083 4
      vertex 25.4343593539449 5.8 4
    endloop
  endfacet
  facet normal -1 0 0
    outer loop
      vertex 0 2 0
      vertex 0 8 4
      vertex 0 8 0
    endloop
  endfacet
  facet normal 0 0 1
    outer loop
      vertex 7.452460554291327 2 4
      vertex 25.22 5 4
      vertex 25.4343593539449 5.8 4
    endloop
  endfacet
  facet normal 0 0 -1
    outer loop
      vertex 0 8 0
      vertex 25.4343593539449 5.8 0
      vertex 25.22 5 0
    endloop
  endfacet
  facet normal 0 0 -1
    outer loop
      vertex 0 8 0
      vertex 26.02 6.385640646055101 0
      vertex 25.4343593539449 5.8 0
    endloop
  endfacet
  facet normal 0 0 -1
    outer loop
      vertex 0 8 0
      vertex 26.82 6.6 0
      vertex 26.02 6.385640646055101 0
    endloop
  endfacet
  facet normal 0 1 0
    outer loop
      vertex 0 8 0
      vertex 0 8 4
      vertex 61.64 8 0
    endloop
  endfacet
  facet normal 0 0 -1
    outer loop
      vertex 0 8 0
      vertex 44.82 6.6 0
      vertex 26.82 6.6 0
    endloop
  endfacet
  facet normal 0 0 1
    outer loop
      vertex 0 8 4
      vertex 25.4343593539449 5.8 4
      vertex 26.02 6.385640646055101 4
    endloop
  endfacet
  facet normal 0 0 1
    outer loop
      vertex 0 8 4
      vertex 26.02 6.385640646055101 4
      vertex 26.82 6.6 4
    endloop
  endfacet
  facet normal 0 0 1
    outer loop
      vertex 0 8 4
      vertex 26.82 6.6 4
      vertex 44.82 6.6 4
    endloop
  endfacet
  facet normal 0 0 -1
    outer loop
      vertex 0 2 0
      vertex 44.82 3.4 0
      vertex 61.64 2 0
    endloop
  endfacet
  facet normal 0 0 -1
    outer loop
      vertex 26.82 3.4 0
      vertex 27.62 3.614359353944898 0
      vertex 44.82 3.4 0
    endloop
  endfacet
  facet normal 0 0 -1
    outer loop
      vertex 27.62 3.614359353944898 0
      vertex 28.2056406460551 4.2 0
      vertex 44.02 3.614359353944898 0
    endloop
  endfacet
  facet normal 0 0 -1
    outer loop
      vertex 27.62 3.614359353944898 0
      vertex 44.02 3.614359353944898 0
      vertex 44.82 3.4 0
    endloop
  endfacet
  facet normal 0 0 1
    outer loop
      vertex 27.62 3.614359353944898 4
      vertex 26.82 3.4 4
      vertex 44.02 3.614359353944898 4
    endloop
  endfacet
  facet normal 0 0 1
    outer loop
      vertex 43.4343593539449 4.2 4
      vertex 27.62 3.614359353944898 4
      vertex 44.02 3.614359353944898 4
    endloop
  endfacet
  facet normal 0 0 1
    outer loop
      vertex 54.18753944570867 2 4
      vertex 44.82 3.4 4
      vertex 26.82 3.4 4
    endloop
  endfacet
  facet normal 0 0 1
    outer loop
      vertex 26.82 3.4 4
      vertex 44.82 3.4 4
      vertex 44.02 3.614359353944898 4
    endloop
  endfacet
  facet normal 0 0 -1
    outer loop
      vertex 61.64 2 0
      vertex 44.82 3.4 0
      vertex 45.62 3.614359353944898 0
    endloop
  endfacet
  facet normal 0 0 -1
    outer loop
      vertex 61.64 2 0
      vertex 45.62 3.614359353944898 0
      vertex 46.2056406460551 4.2 0
    endloop
  endfacet
  facet normal 0 0 -1
    outer loop
      vertex 61.64 2 0
      vertex 46.2056406460551 4.2 0
      vertex 46.42 5 0
    endloop
  endfacet
  facet normal 0 0 1
    outer loop
      vertex 54.18753944570867 2 4
      vertex 54.64 2.2076923076923083 4
      vertex 44.82 3.4 4
    endloop
  endfacet
  facet normal 0 0 1
    outer loop
      vertex 61.64 2 4
      vertex 44.82 3.4 4
      vertex 54.64 2.2076923076923083 4
    endloop
  endfacet
  facet normal 0 0 1
    outer loop
      vertex 61.64 2 4
      vertex 45.62 3.614359353944898 4
      vertex 44.82 3.4 4
    endloop
  endfacet
  facet normal 0 0 1
    outer loop
      vertex 61.64 2 4
      vertex 46.2056406460551 4.2 4
      vertex 45.62 3.614359353944898 4
    endloop
  endfacet
  facet normal 0 0 1
    outer loop
      vertex 61.64 2 4
      vertex 46.42 5 4
      vertex 46.2056406460551 4.2 4
    endloop
  endfacet
  facet normal 0 0 1
    outer loop
      vertex 61.64 2 4
      vertex 54.64 2.2076923076923083 4
      vertex 55.09246055429133 2 4
    endloop
  endfacet
  facet normal 0 0 -1
    outer loop
      vertex 28.42 5 0
      vertex 43.4343593539449 4.2 0
      vertex 28.2056406460551 4.2 0
    endloop
  endfacet
  facet normal 0 0 -1
    outer loop
      vertex 28.42 5 0
      vertex 43.22 5 0
      vertex 43.4343593539449 4.2 0
    endloop
  endfacet
  facet normal 0 0 -1
    outer loop
      vertex 43.4343593539449 5.8 0
      vertex 28.42 5 0
      vertex 28.2056406460551 5.8 0
    endloop
  endfacet
  facet normal 0 0 -1
    outer loop
      vertex 43.4343593539449 5.8 0
      vertex 28.2056406460551 5.8 0
      vertex 27.62 6.385640646055101 0
    endloop
  endfacet
  facet normal 0 0 -1
    outer loop
      vertex 28.42 5 0
      vertex 43.4343593539449 5.8 0
      vertex 43.22 5 0
    endloop
  endfacet
  facet normal 0 0 -1
    outer loop
      vertex 28.2056406460551 4.2 0
      vertex 43.4343593539449 4.2 0
      vertex 44.02 3.614359353944898 0
    endloop
  endfacet
  facet normal 0 0 1
    outer loop
      vertex 43.4343593539449 4.2 4
      vertex 28.2056406460551 4.2 4
      vertex 27.62 3.614359353944898 4
    endloop
  endfacet
  facet normal 0 0 1
    outer loop
      vertex 43.4343593539449 4.2 4
      vertex 28.42 5 4
      vertex 28.2056406460551 4.2 4
    endloop
  endfacet
  facet normal 0 0 1
    outer loop
      vertex 28.42 5 4
      vertex 43.4343593539449 4.2 4
      vertex 43.22 5 4
    endloop
  endfacet
  facet normal 0 0 1
    outer loop
      vertex 28.42 5 4
      vertex 43.4343593539449 5.8 4
      vertex 28.2056406460551 5.8 4
    endloop
  endfacet
  facet normal 0 0 1
    outer loop
      vertex 28.42 5 4
      vertex 43.22 5 4
      vertex 43.4343593539449 5.8 4
    endloop
  endfacet
  facet normal 0 0 1
    outer loop
      vertex 28.2056406460551 5.8 4
      vertex 43.4343593539449 5.8 4
      vertex 44.02 6.385640646055101 4
    endloop
  endfacet
  facet normal 0 0 -1
    outer loop
      vertex 26.82 6.6 0
      vertex 44.02 6.385640646055101 0
      vertex 27.62 6.385640646055101 0
    endloop
  endfacet
  facet normal 0 0 -1
    outer loop
      vertex 43.4343593539449 5.8 0
      vertex 27.62 6.385640646055101 0
      vertex 44.02 6.385640646055101 0
    endloop
  endfacet
  facet normal 0 0 -1
    outer loop
      vertex 0 8 0
      vertex 61.64 8 0
      vertex 44.82 6.6 0
    endloop
  endfacet
  facet normal 0 0 -1
    outer loop
      vertex 26.82 6.6 0
      vertex 44.82 6.6 0
      vertex 44.02 6.385640646055101 0
    endloop
  endfacet
  facet normal 0 1 0
    outer loop
      vertex 0 8 4
      vertex 61.64 8 4
      vertex 61.64 8 0
    endloop
  endfacet
  facet normal 0 0 1
    outer loop
      vertex 28.2056406460551 5.8 4
      vertex 44.02 6.385640646055101 4
      vertex 27.62 6.385640646055101 4
    endloop
  endfacet
  facet normal 0 0 1
    outer loop
      vertex 26.82 6.6 4
      vertex 27.62 6.385640646055101 4
      vertex 44.82 6.6 4
    endloop
  endfacet
  facet normal 0 0 1
    outer loop
      vertex 0 8 4
      vertex 44.82 6.6 4
      vertex 61.64 8 4
    endloop
  endfacet
  facet normal 0 0 1
    outer loop
      vertex 27.62 6.385640646055101 4
      vertex 44.02 6.385640646055101 4
      vertex 44.82 6.6 4
    endloop
  endfacet
  facet normal 1 0 0
    outer loop
      vertex 61.64 2 0
      vertex 61.64 8 0
      vertex 61.64 2 4
    endloop
  endfacet
  facet normal 0 0 -1
    outer loop
      vertex 61.64 2 0
      vertex 46.42 5 0
      vertex 61.64 8 0
    endloop
  endfacet
  facet normal 0 0 1
    outer loop
      vertex 61.64 2 4
      vertex 61.64 8 4
      vertex 46.42 5 4
    endloop
  endfacet
  facet normal 0 0 -1
    outer loop
      vertex 61.64 8 0
      vertex 46.42 5 0
      vertex 46.2056406460551 5.8 0
    endloop
  endfacet
  facet normal 0 0 -1
    outer loop
      vertex 61.64 8 0
      vertex 46.2056406460551 5.8 0
      vertex 45.62 6.385640646055101 0
    endloop
  endfacet
  facet normal 0 0 -1
    outer loop
      vertex 61.64 8 0
      vertex 45.62 6.385640646055101 0
      vertex 44.82 6.6 0
    endloop
  endfacet
  facet normal 1 0 0
    outer loop
      vertex 61.64 2 4
      vertex 61.64 8 0
      vertex 61.64 8 4
    endloop
  endfacet
  facet normal 0 0 1
    outer loop
      vertex 61.64 8 4
      vertex 46.2056406460551 5.8 4
      vertex 46.42 5 4
    endloop
  endfacet
  facet normal 0 0 1
    outer loop
      vertex 61.64 8 4
      vertex 45.62 6.385640646055101 4
      vertex 46.2056406460551 5.8 4
    endloop
  endfacet
  facet normal 0 0 1
    outer loop
      vertex 61.64 8 4
      vertex 44.82 6.6 4
      vertex 45.62 6.385640646055101 4
    endloop
  endfacet
  facet normal 0.25881904510252063 0.9659258262890683 0
    outer loop
      vertex 26.02 3.614359353944898 4
      vertex 26.82 3.4 0
      vertex 26.02 3.614359353944898 0
    endloop
  endfacet
  facet normal -0.25881904510252063 0.9659258262890683 0
    outer loop
      vertex 26.82 3.4 4
      vertex 27.62 3.614359353944898 0
      vertex 26.82 3.4 0
    endloop
  endfacet
  facet normal -0.7071067811865483 0.7071067811865468 0
    outer loop
      vertex 27.62 3.614359353944898 0
      vertex 27.62 3.614359353944898 4
      vertex 28.2056406460551 4.2 0
    endloop
  endfacet
  facet normal 0.25881904510252063 0.9659258262890683 0
    outer loop
      vertex 26.82 3.4 4
      vertex 26.82 3.4 0
      vertex 26.02 3.614359353944898 4
    endloop
  endfacet
  facet normal 0.7071067811865483 0.7071067811865468 0
    outer loop
      vertex 26.02 3.614359353944898 4
      vertex 26.02 3.614359353944898 0
      vertex 25.4343593539449 4.2 4
    endloop
  endfacet
  facet normal -0.25881904510252063 0.9659258262890683 0
    outer loop
      vertex 27.62 3.614359353944898 4
      vertex 27.62 3.614359353944898 0
      vertex 26.82 3.4 4
    endloop
  endfacet
  facet normal 0.7071067811865483 0.7071067811865468 -2.662976302480833e-18
    outer loop
      vertex 26.02 3.614359353944898 0
      vertex 25.4343593539449 4.2 0
      vertex 25.4343593539449 4.2 4
    endloop
  endfacet
  facet normal 0.9659258262890676 0.2588190451025229 -3.586653338870761e-18
    outer loop
      vertex 25.4343593539449 4.2 0
      vertex 25.22 5 0
      vertex 25.22 5 4
    endloop
  endfacet
  facet normal -0.9659258262890676 0.2588190451025229 3.586653338870761e-18
    outer loop
      vertex 28.42 5 0
      vertex 28.2056406460551 4.2 0
      vertex 28.2056406460551 4.2 4
    endloop
  endfacet
  facet normal 0.9659258262890676 0.2588190451025229 -3.586653338870761e-18
    outer loop
      vertex 25.22 5 4
      vertex 25.4343593539449 4.2 4
      vertex 25.4343593539449 4.2 0
    endloop
  endfacet
  facet normal -0.7071067811865483 0.7071067811865468 2.662976302480833e-18
    outer loop
      vertex 27.62 3.614359353944898 4
      vertex 28.2056406460551 4.2 4
      vertex 28.2056406460551 4.2 0
    endloop
  endfacet
  facet normal -0.9659258262890676 0.2588190451025229 3.586653338870761e-18
    outer loop
      vertex 28.2056406460551 4.2 4
      vertex 28.42 5 4
      vertex 28.42 5 0
    endloop
  endfacet
  facet normal 0.9659258262890676 -0.2588190451025229 3.586653338870761e-18
    outer loop
      vertex 25.22 5 0
      vertex 25.4343593539449 5.8 0
      vertex 25.4343593539449 5.8 4
    endloop
  endfacet
  facet normal -0.9659258262890676 -0.2588190451025229 0
    outer loop
      vertex 28.42 5 0
      vertex 28.42 5 4
      vertex 28.2056406460551 5.8 0
    endloop
  endfacet
  facet normal -0.7071067811865481 -0.707106781186547 -7.939063714089346e-18
    outer loop
      vertex 27.62 6.385640646055101 0
      vertex 28.2056406460551 5.8 0
      vertex 28.2056406460551 5.8 4
    endloop
  endfacet
  facet normal 0.9659258262890676 -0.2588190451025229 3.586653338870761e-18
    outer loop
      vertex 25.4343593539449 5.8 4
      vertex 25.22 5 4
      vertex 25.22 5 0
    endloop
  endfacet
  facet normal 0.7071067811865481 -0.707106781186547 0
    outer loop
      vertex 25.4343593539449 5.8 0
      vertex 26.02 6.385640646055101 4
      vertex 25.4343593539449 5.8 4
    endloop
  endfacet
  facet normal -0.9659258262890676 -0.2588190451025229 -3.586653338870761e-18
    outer loop
      vertex 28.42 5 4
      vertex 28.2056406460551 5.8 4
      vertex 28.2056406460551 5.8 0
    endloop
  endfacet
  facet normal 0.7071067811865481 -0.707106781186547 0
    outer loop
      vertex 26.02 6.385640646055101 0
      vertex 26.02 6.385640646055101 4
      vertex 25.4343593539449 5.8 0
    endloop
  endfacet
  facet normal 0.25881904510252063 -0.9659258262890683 0
    outer loop
      vertex 26.82 6.6 0
      vertex 26.82 6.6 4
      vertex 26.02 6.385640646055101 0
    endloop
  endfacet
  facet normal -0.25881904510252063 -0.9659258262890683 -7.339145067600456e-19
    outer loop
      vertex 26.82 6.6 0
      vertex 27.62 6.385640646055101 0
      vertex 27.62 6.385640646055101 4
    endloop
  endfacet
  facet normal 0.25881904510252063 -0.9659258262890683 0
    outer loop
      vertex 26.02 6.385640646055101 0
      vertex 26.82 6.6 4
      vertex 26.02 6.385640646055101 4
    endloop
  endfacet
  facet normal -0.7071067811865481 -0.707106781186547 0
    outer loop
      vertex 27.62 6.385640646055101 0
      vertex 28.2056406460551 5.8 4
      vertex 27.62 6.385640646055101 4
    endloop
  endfacet
  facet normal -0.25881904510252063 -0.9659258262890683 0
    outer loop
      vertex 26.82 6.6 0
      vertex 27.62 6.385640646055101 4
      vertex 26.82 6.6 4
    endloop
  endfacet
  facet normal -0.25881904510252174 0.9659258262890681 0
    outer loop
      vertex 44.82 3.4 4
      vertex 45.62 3.614359353944898 0
      vertex 44.82 3.4 0
    endloop
  endfacet
  facet normal 0.25881904510252174 0.9659258262890681 0
    outer loop
      vertex 44.02 3.614359353944898 4
      vertex 44.82 3.4 0
      vertex 44.02 3.614359353944898 0
    endloop
  endfacet
  facet normal -0.7071067811865462 0.7071067811865489 0
    outer loop
      vertex 45.62 3.614359353944898 0
      vertex 45.62 3.614359353944898 4
      vertex 46.2056406460551 4.2 0
    endloop
  endfacet
  facet normal 0.25881904510252174 0.9659258262890681 0
    outer loop
      vertex 44.82 3.4 4
      vertex 44.82 3.4 0
      vertex 44.02 3.614359353944898 4
    endloop
  endfacet
  facet normal 0.7071067811865462 0.7071067811865489 6.033438852066928e-18
    outer loop
      vertex 43.4343593539449 4.2 4
      vertex 44.02 3.614359353944898 4
      vertex 44.02 3.614359353944898 0
    endloop
  endfacet
  facet normal -0.25881904510252174 0.9659258262890681 0
    outer loop
      vertex 45.62 3.614359353944898 0
      vertex 44.82 3.4 4
      vertex 45.62 3.614359353944898 4
    endloop
  endfacet
  facet normal 0.7071067811865462 0.7071067811865489 6.033438852066928e-18
    outer loop
      vertex 44.02 3.614359353944898 0
      vertex 43.4343593539449 4.2 0
      vertex 43.4343593539449 4.2 4
    endloop
  endfacet
  facet normal 0.9659258262890676 0.2588190451025229 -3.586653338870761e-18
    outer loop
      vertex 43.4343593539449 4.2 0
      vertex 43.22 5 0
      vertex 43.22 5 4
    endloop
  endfacet
  facet normal 0.9659258262890676 0.2588190451025229 0
    outer loop
      vertex 43.4343593539449 4.2 0
      vertex 43.22 5 4
      vertex 43.4343593539449 4.2 4
    endloop
  endfacet
  facet normal -0.7071067811865462 0.7071067811865489 0
    outer loop
      vertex 46.2056406460551 4.2 0
      vertex 45.62 3.614359353944898 4
      vertex 46.2056406460551 4.2 4
    endloop
  endfacet
  facet normal 0.9659258262890676 -0.2588190451025229 3.586653338870761e-18
    outer loop
      vertex 43.22 5 0
      vertex 43.4343593539449 5.8 0
      vertex 43.4343593539449 5.8 4
    endloop
  endfacet
  facet normal -0.7071067811865459 -0.7071067811865491 7.573514404589108e-19
    outer loop
      vertex 45.62 6.385640646055101 0
      vertex 46.2056406460551 5.8 0
      vertex 46.2056406460551 5.8 4
    endloop
  endfacet
  facet normal 0.9659258262890676 -0.2588190451025229 0
    outer loop
      vertex 43.22 5 0
      vertex 43.4343593539449 5.8 4
      vertex 43.22 5 4
    endloop
  endfacet
  facet normal 0.7071067811865459 -0.7071067811865491 0
    outer loop
      vertex 43.4343593539449 5.8 0
      vertex 44.02 6.385640646055101 4
      vertex 43.4343593539449 5.8 4
    endloop
  endfacet
  facet normal 0.7071067811865459 -0.7071067811865491 -7.573514404589108e-19
    outer loop
      vertex 43.4343593539449 5.8 0
      vertex 44.02 6.385640646055101 0
      vertex 44.02 6.385640646055101 4
    endloop
  endfacet
  facet normal -0.25881904510252174 -0.9659258262890681 0
    outer loop
      vertex 45.62 6.385640646055101 0
      vertex 45.62 6.385640646055101 4
      vertex 44.82 6.6 0
    endloop
  endfacet
  facet normal 0.25881904510252174 -0.9659258262890681 -2.935658027040195e-18
    outer loop
      vertex 44.02 6.385640646055101 0
      vertex 44.82 6.6 0
      vertex 44.82 6.6 4
    endloop
  endfacet
  facet normal 0.25881904510252174 -0.9659258262890681 -2.935658027040195e-18
    outer loop
      vertex 44.82 6.6 4
      vertex 44.02 6.385640646055101 4
      vertex 44.02 6.385640646055101 0
    endloop
  endfacet
  facet normal -0.7071067811865459 -0.7071067811865491 0
    outer loop
      vertex 45.62 6.385640646055101 0
      vertex 46.2056406460551 5.8 4
      vertex 45.62 6.385640646055101 4
    endloop
  endfacet
  facet normal -0.25881904510252174 -0.9659258262890681 0
    outer loop
      vertex 44.82 6.6 0
      vertex 45.62 6.385640646055101 4
      vertex 44.82 6.6 4
    endloop
  endfacet
  facet normal -0.9659258262890676 0.2588190451025229 0
    outer loop
      vertex 46.2056406460551 4.2 0
      vertex 46.2056406460551 4.2 4
      vertex 46.42 5 0
    endloop
  endfacet
  facet normal -0.9659258262890676 0.2588190451025229 0
    outer loop
      vertex 46.42 5 0
      vertex 46.2056406460551 4.2 4
      vertex 46.42 5 4
    endloop
  endfacet
  facet normal -0.9659258262890676 -0.2588190451025229 0
    outer loop
      vertex 46.42 5 0
      vertex 46.42 5 4
      vertex 46.2056406460551 5.8 0
    endloop
  endfacet
  facet normal -0.9659258262890676 -0.2588190451025229 0
    outer loop
      vertex 46.2056406460551 5.8 0
      vertex 46.42 5 4
      vertex 46.2056406460551 5.8 4
    endloop
  endfacet
endsolid OpenSCAD_Model
